<?xml version="1.0" standalone="no"?>
<!DOCTYPE svg PUBLIC "-//W3C//DTD SVG 20010904//EN"
 "http://www.w3.org/TR/2001/REC-SVG-20010904/DTD/svg10.dtd">
<svg version="1.0" xmlns="http://www.w3.org/2000/svg"
 width="295.000000pt" height="262.000000pt" viewBox="0 0 295.000000 262.000000"
 preserveAspectRatio="xMidYMid meet">

<g transform="translate(0.000000,262.000000) scale(0.100000,-0.100000)"
fill="#000000" stroke="none">
<path d="M1313 2573 c-7 -2 -13 -9 -13 -15 0 -7 4 -7 13 0 6 5 21 12 32 15
l20 5 -20 0 c-11 0 -26 -2 -32 -5z"/>
<path d="M1418 2573 c7 -3 16 -2 19 1 4 3 -2 6 -13 5 -11 0 -14 -3 -6 -6z"/>
<path d="M1528 2573 c7 -3 16 -2 19 1 4 3 -2 6 -13 5 -11 0 -14 -3 -6 -6z"/>
<path d="M1598 2573 c6 -2 18 -2 25 0 6 3 1 5 -13 5 -14 0 -19 -2 -12 -5z"/>
<path d="M1258 2563 c7 -3 16 -2 19 1 4 3 -2 6 -13 5 -11 0 -14 -3 -6 -6z"/>
<path d="M1658 2563 c7 -3 16 -2 19 1 4 3 -2 6 -13 5 -11 0 -14 -3 -6 -6z"/>
<path d="M1454 2549 c-3 -5 6 -9 20 -9 31 0 34 6 6 13 -11 3 -23 1 -26 -4z"/>
<path d="M1718 2553 c7 -3 16 -2 19 1 4 3 -2 6 -13 5 -11 0 -14 -3 -6 -6z"/>
<path d="M1145 2540 c3 -5 8 -10 11 -10 2 0 4 5 4 10 0 6 -5 10 -11 10 -5 0
-7 -4 -4 -10z"/>
<path d="M1340 2540 c0 -5 5 -10 11 -10 5 0 7 5 4 10 -3 6 -8 10 -11 10 -2 0
-4 -4 -4 -10z"/>
<path d="M1773 2535 c-10 -10 -9 -14 3 -19 22 -8 24 -8 18 7 -4 10 3 12 28 9
40 -6 35 3 -7 11 -19 3 -35 0 -42 -8z"/>
<path d="M1288 2533 c7 -3 16 -2 19 1 4 3 -2 6 -13 5 -11 0 -14 -3 -6 -6z"/>
<path d="M1040 2519 c0 -5 -4 -7 -10 -4 -5 3 -10 -1 -10 -9 0 -21 14 -27 41
-18 14 5 18 11 11 16 -6 3 -13 2 -17 -4 -3 -5 -11 -10 -17 -10 -6 0 -3 9 7 20
10 11 13 20 7 20 -7 0 -12 -5 -12 -11z"/>
<path d="M1891 2507 c-13 -21 -13 -21 4 -7 17 14 18 13 12 -2 -3 -10 -2 -18 3
-18 6 0 10 5 10 11 0 6 8 8 19 4 11 -3 22 -2 24 2 3 4 -6 9 -20 10 -14 0 -29
6 -32 12 -4 6 -12 1 -20 -12z"/>
<path d="M1810 2515 c0 -7 30 -13 34 -7 3 4 -4 9 -15 9 -10 1 -19 0 -19 -2z"/>
<path d="M935 2486 c-17 -13 -18 -15 -3 -16 9 0 19 6 22 13 3 6 3 2 0 -10 -4
-19 -2 -22 13 -16 10 3 23 10 29 14 6 5 14 6 17 2 4 -3 7 -3 7 0 0 3 -9 11
-20 17 -16 9 -18 8 -14 -5 8 -20 -6 -19 -20 0 -10 14 -13 14 -31 1z"/>
<path d="M1960 2469 c0 -5 5 -7 10 -4 6 3 10 1 10 -4 0 -6 5 -11 11 -11 8 0 8
5 -1 15 -14 17 -30 20 -30 4z"/>
<path d="M880 2459 c0 -5 -4 -8 -9 -4 -5 3 -12 1 -16 -5 -4 -6 -11 -8 -16 -5
-5 4 -6 -2 -2 -12 6 -15 4 -16 -8 -6 -13 10 -16 10 -16 -2 0 -8 4 -12 8 -9 4
2 10 -2 12 -8 4 -8 8 -4 12 10 7 20 30 28 72 23 6 -1 14 3 18 9 3 5 0 7 -8 4
-8 -3 -18 -1 -22 5 -8 14 -25 14 -25 0z"/>
<path d="M2051 2465 c-2 -24 14 -33 29 -17 13 14 12 15 -2 9 -9 -3 -19 -1 -22
6 -2 7 -5 8 -5 2z"/>
<path d="M1416 2449 c3 -5 9 -7 14 -4 5 3 12 1 15 -5 5 -8 11 -8 20 0 7 6 21
7 30 3 12 -4 16 -3 11 5 -4 6 -27 11 -51 10 -25 0 -42 -5 -39 -9z"/>
<path d="M1327 2436 c-3 -8 -3 -24 0 -36 4 -16 8 -18 14 -8 12 18 11 31 -1 23
-14 -9 -13 8 2 23 8 8 8 12 1 12 -6 0 -13 -6 -16 -14z"/>
<path d="M1178 2430 c-9 -6 -15 -18 -13 -28 2 -9 4 -20 4 -24 1 -5 5 -8 10 -8
6 0 8 9 6 20 -2 11 3 27 11 35 17 17 8 19 -18 5z"/>
<path d="M1240 2420 c20 -20 18 -47 -4 -62 -8 -5 -8 -8 0 -8 7 0 18 10 26 23
19 28 7 67 -22 67 -20 0 -20 0 0 -20z"/>
<path d="M1722 2404 c-7 -22 -7 -34 0 -32 5 2 9 6 8 8 -1 3 3 17 9 33 6 15 7
27 2 27 -4 0 -13 -16 -19 -36z"/>
<path d="M2140 2432 c0 -6 -15 -9 -32 -7 -26 3 -29 2 -15 -6 9 -6 21 -7 27 -4
5 3 14 -4 20 -15 6 -11 16 -18 21 -14 6 3 3 12 -8 20 -22 16 -12 18 21 3 15
-7 22 -17 19 -26 -3 -8 0 -19 8 -24 23 -14 34 -10 13 5 -11 8 -15 18 -10 23 5
4 11 2 13 -4 3 -7 10 -13 16 -13 15 0 -9 22 -55 49 -21 13 -38 18 -38 13z"/>
<path d="M742 2403 c-24 -14 -41 -28 -38 -30 3 -3 16 1 30 10 27 18 42 11 23
-11 -11 -13 -9 -14 10 -1 16 9 19 16 10 21 -9 6 -7 12 7 23 30 23 6 16 -42
-12z"/>
<path d="M1443 2370 c1 -27 4 -50 7 -50 7 0 5 88 -2 96 -3 2 -5 -18 -5 -46z"/>
<path d="M1613 2385 c0 -20 3 -31 7 -25 5 8 9 7 13 -4 4 -9 3 -16 -2 -16 -4 0
-8 -6 -8 -13 0 -8 6 -14 13 -14 14 0 10 60 -5 65 -5 2 -7 12 -4 22 3 11 1 20
-4 20 -5 0 -10 -16 -10 -35z"/>
<path d="M1040 2385 c-22 -23 -18 -55 6 -55 16 0 19 16 4 25 -17 11 -11 25 15
35 28 11 32 17 10 17 -8 0 -24 -10 -35 -22z"/>
<path d="M1863 2375 c-15 -16 -17 -45 -4 -45 5 0 14 14 20 30 11 32 4 38 -16
15z"/>
<path d="M1943 2373 c4 -3 0 -15 -10 -25 -10 -11 -12 -18 -4 -18 6 0 14 7 17
15 6 14 37 16 50 2 4 -4 14 -7 23 -7 10 1 7 5 -9 14 -14 8 -28 12 -32 10 -3
-2 -9 0 -13 6 -3 5 -11 10 -17 10 -6 0 -8 -3 -5 -7z"/>
<path d="M1333 2343 c1 -16 7 -27 12 -25 6 1 10 7 9 12 -1 6 -2 17 -2 25 -3
28 -21 15 -19 -12z"/>
<path d="M1533 2352 c-3 -9 -8 -21 -11 -27 -3 -5 5 -1 17 10 13 11 33 18 45
17 31 -6 15 6 -17 12 -20 3 -30 0 -34 -12z"/>
<path d="M2250 2356 c0 -8 5 -18 12 -22 7 -5 8 -3 3 6 -6 10 -4 12 8 7 24 -9
21 0 -3 13 -16 8 -20 8 -20 -4z"/>
<path d="M631 2341 c-16 -12 -20 -20 -12 -25 13 -8 6 -26 -10 -26 -6 0 -8 4
-5 9 11 16 -26 5 -39 -12 -7 -9 -15 -14 -18 -10 -4 3 -7 1 -7 -5 0 -6 5 -14
10 -17 6 -4 7 -12 3 -18 -7 -13 15 4 55 41 14 12 29 22 33 22 5 0 9 5 9 11 0
5 -4 7 -10 4 -6 -3 -7 1 -4 10 6 14 8 14 18 1 10 -13 13 -13 30 -1 19 14 18
15 -10 15 -22 0 -26 3 -14 10 8 5 11 10 5 10 -5 0 -21 -9 -34 -19z m-48 -69
c-21 -22 -26 -21 -17 2 3 9 12 16 20 16 11 0 10 -4 -3 -18z"/>
<path d="M1183 2353 c9 -2 23 -2 30 0 6 3 -1 5 -18 5 -16 0 -22 -2 -12 -5z"/>
<path d="M1704 2338 c1 -13 -3 -27 -9 -31 -6 -5 -3 -7 8 -3 9 3 17 0 17 -6 0
-6 3 -9 6 -5 3 3 17 2 30 -3 13 -5 26 -5 29 -1 2 5 -11 12 -31 16 -32 5 -36 9
-31 31 2 15 0 24 -8 24 -7 0 -12 -10 -11 -22z"/>
<path d="M890 2339 c-12 -9 -12 -10 3 -5 10 3 27 1 37 -4 13 -7 21 -7 26 2 4
6 3 8 -4 4 -6 -3 -13 -2 -17 4 -8 13 -26 13 -45 -1z"/>
<path d="M1070 2342 c0 -5 7 -13 16 -16 10 -4 14 -1 12 6 -5 15 -28 23 -28 10z"/>
<path d="M2301 2341 c-1 -8 7 -20 17 -28 16 -14 16 -14 -3 -9 -17 5 -16 3 5
-14 16 -12 33 -17 45 -13 18 5 19 4 5 -13 -8 -10 -11 -16 -6 -12 4 3 16 -2 27
-13 10 -10 25 -19 32 -18 6 0 2 5 -10 11 -25 12 -30 33 -10 41 10 4 10 6 0 6
-7 1 -22 10 -33 21 -12 12 -25 18 -30 15 -6 -4 -10 1 -10 10 0 9 -4 14 -9 11
-5 -4 -12 0 -14 6 -4 10 -6 9 -6 -1z m64 -52 c-3 -4 -12 -6 -20 -3 -8 4 -13
10 -10 15 3 4 12 6 20 3 8 -4 13 -10 10 -15z"/>
<path d="M1185 2319 c5 -26 13 -35 22 -25 4 4 1 11 -7 16 -11 7 -12 10 -2 10
7 0 10 5 7 10 -11 18 -24 11 -20 -11z"/>
<path d="M855 2319 c-13 -20 -12 -61 1 -66 8 -3 11 -9 8 -14 -3 -5 1 -9 10 -9
8 0 16 -5 18 -12 6 -18 47 -19 74 -2 13 9 22 19 20 22 -3 3 -11 0 -18 -5 -7
-6 -25 -12 -39 -15 -21 -4 -30 2 -49 29 -14 21 -21 42 -18 58 6 27 3 31 -7 14z"/>
<path d="M1110 2319 c0 -5 5 -7 10 -4 6 3 10 0 10 -7 0 -16 -40 -43 -57 -40
-18 4 -16 -5 1 -11 21 -8 70 37 63 57 -7 18 -27 22 -27 5z"/>
<path d="M1830 2288 c0 -25 3 -29 10 -18 13 20 13 50 0 50 -5 0 -10 -15 -10
-32z"/>
<path d="M2079 2303 c-13 -14 -12 -15 6 -6 32 16 63 -6 59 -41 -3 -31 -2 -31
15 1 10 21 8 25 -21 43 -40 24 -42 24 -59 3z"/>
<path d="M975 2290 c1 -11 8 -26 15 -33 12 -10 12 -9 2 5 -10 12 -10 17 -1 20
8 3 7 7 -3 16 -12 9 -14 8 -13 -8z"/>
<path d="M1985 2290 c3 -5 8 -10 11 -10 2 0 4 5 4 10 0 6 -5 10 -11 10 -5 0
-7 -4 -4 -10z"/>
<path d="M2053 2263 c-26 -24 -47 -63 -33 -63 6 0 15 12 20 26 8 20 15 24 33
19 15 -4 18 -4 8 3 -7 5 -10 15 -7 21 10 16 2 14 -21 -6z"/>
<path d="M756 2261 c-4 -6 -3 -11 2 -11 6 0 13 -7 16 -17 9 -22 -31 -64 -52
-55 -14 5 -15 4 -2 -10 14 -14 17 -13 39 8 13 13 28 21 34 17 7 -4 8 0 3 13
-4 10 -9 25 -10 32 -4 21 -23 35 -30 23z"/>
<path d="M1920 2246 c14 -8 27 -12 29 -10 6 6 -1 11 -29 18 l-25 7 25 -15z"/>
<path d="M500 2230 c0 -15 21 -23 32 -12 6 6 2 11 -11 15 -12 3 -21 1 -21 -3z"/>
<path d="M471 2217 c-6 -8 -8 -16 -5 -20 3 -3 -6 -13 -19 -22 -14 -9 -25 -25
-24 -36 1 -17 4 -16 32 9 16 15 32 28 34 29 2 2 -1 9 -7 16 -9 10 -8 17 0 25
7 7 9 12 6 12 -3 0 -11 -6 -17 -13z m9 -31 c0 -2 -8 -10 -17 -17 -16 -13 -17
-12 -4 4 13 16 21 21 21 13z"/>
<path d="M2458 2219 c14 -15 16 -33 2 -24 -6 3 -7 -1 -4 -9 3 -9 12 -16 19
-16 7 0 16 -7 19 -16 3 -8 10 -13 16 -9 5 3 16 -8 25 -25 8 -16 19 -29 23 -29
18 3 32 -2 47 -17 13 -13 13 -19 3 -33 -10 -13 -10 -14 2 -4 11 10 18 9 33 -5
20 -17 20 -17 4 9 -23 36 -61 66 -78 64 -8 -2 -23 11 -32 27 -15 26 -15 30 -2
24 10 -3 13 -2 10 5 -4 6 -13 8 -20 5 -7 -2 -21 2 -32 10 -17 13 -17 14 2 7
18 -6 19 -5 6 11 -8 9 -24 22 -35 28 -17 9 -19 8 -8 -3z"/>
<path d="M665 2200 c3 -5 14 -10 23 -10 15 0 15 2 2 10 -20 13 -33 13 -25 0z"/>
<path d="M811 2199 c0 -8 5 -23 12 -34 11 -14 16 -15 22 -5 6 9 4 11 -5 5 -10
-6 -12 -4 -7 9 4 9 3 14 -2 11 -5 -3 -12 3 -14 12 -4 14 -5 14 -6 2z"/>
<path d="M2095 2200 c-4 -6 -3 -16 3 -22 6 -6 12 -6 17 2 4 6 3 16 -3 22 -6 6
-12 6 -17 -2z"/>
<path d="M1726 2186 c3 -7 16 -19 30 -26 13 -7 24 -18 24 -23 0 -5 7 -4 15 3
10 8 19 9 28 3 19 -15 49 -24 42 -13 -3 6 -12 10 -20 10 -8 0 -19 8 -24 18 -6
9 -11 13 -11 8 0 -5 -7 -3 -15 4 -8 7 -15 9 -15 5 0 -4 -6 -3 -12 2 -23 18
-47 23 -42 9z m69 -26 c3 -5 1 -10 -4 -10 -6 0 -11 5 -11 10 0 6 2 10 4 10 3
0 8 -4 11 -10z"/>
<path d="M2312 2171 c-10 -6 -8 -10 8 -14 15 -4 19 -10 14 -19 -4 -7 -3 -9 1
-5 12 10 16 39 5 32 -5 -3 -10 -1 -12 5 -2 5 -9 6 -16 1z"/>
<path d="M382 2131 c-13 -18 -18 -32 -12 -36 13 -8 32 4 25 15 -3 5 -1 19 5
30 15 29 7 25 -18 -9z"/>
<path d="M726 2129 c3 -5 12 -9 20 -9 8 0 12 -4 9 -10 -3 -5 -1 -10 4 -10 15
0 14 17 -1 27 -19 11 -39 13 -32 2z"/>
<path d="M1800 2122 c0 -7 5 -12 11 -12 5 0 8 -4 5 -9 -3 -5 1 -14 8 -20 10
-8 16 -9 21 -1 3 6 11 7 17 4 7 -4 8 -2 4 5 -6 9 -11 9 -22 0 -14 -11 -15 -10
-18 11 -2 15 -26 36 -26 22z"/>
<path d="M2250 2103 c0 -5 -10 -15 -22 -21 -13 -6 -18 -11 -12 -11 16 -1 50
27 41 35 -4 4 -7 3 -7 -3z"/>
<path d="M2370 2080 c-19 -16 -32 -29 -29 -30 4 0 22 13 40 30 19 16 32 30 29
30 -3 0 -21 -13 -40 -30z"/>
<path d="M510 2085 c-7 -8 -9 -15 -5 -15 4 0 1 -8 -6 -17 -7 -10 -1 -7 13 6
15 13 25 28 22 32 -7 12 -10 11 -24 -6z"/>
<path d="M1266 2091 c-4 -6 -6 -23 -4 -38 2 -22 -2 -28 -27 -36 -69 -22 -125
-88 -125 -147 0 -12 12 -33 26 -47 24 -24 30 -25 92 -20 37 4 105 18 152 32
47 14 122 29 167 32 81 6 82 6 112 -25 50 -49 39 -124 -34 -238 l-36 -56 49
41 c128 108 177 242 115 311 -49 55 -152 51 -388 -15 -49 -14 -104 -25 -122
-25 -33 0 -63 21 -63 45 0 19 43 68 74 84 23 13 28 12 47 -5 21 -19 21 -19 63
29 23 26 51 47 62 48 29 1 -51 28 -106 35 -31 4 -50 2 -54 -5z"/>
<path d="M331 2081 c-14 -9 -4 -19 17 -15 6 1 18 2 25 3 8 1 7 4 -3 11 -18 12
-21 12 -39 1z"/>
<path d="M1885 2080 c-3 -6 1 -7 9 -4 18 7 21 14 7 14 -6 0 -13 -4 -16 -10z"/>
<path d="M2305 2081 c-3 -5 -1 -12 4 -15 5 -3 11 1 15 9 6 16 -9 21 -19 6z"/>
<path d="M2561 2077 c2 -1 13 -9 24 -17 19 -14 19 -14 6 3 -7 9 -18 17 -24 17
-6 0 -8 -1 -6 -3z"/>
<path d="M1925 2048 c1 -13 -3 -30 -8 -38 -9 -12 -9 -13 3 -2 17 15 31 16 28
1 -2 -6 4 -14 12 -16 13 -4 13 -3 0 6 -8 6 -12 11 -7 11 7 0 -19 60 -27 60 -1
0 -2 -10 -1 -22z"/>
<path d="M571 2048 c-1 -10 -5 -18 -9 -18 -5 0 -14 -12 -20 -26 -7 -14 -8 -23
-3 -20 5 4 11 0 14 -6 2 -7 8 -10 12 -5 5 4 3 13 -3 19 -9 9 -8 16 4 29 9 10
14 24 11 31 -4 8 -6 7 -6 -4z"/>
<path d="M296 2029 c-14 -11 -26 -26 -26 -32 0 -6 7 -1 16 11 8 12 22 22 30
22 8 0 14 5 14 10 0 14 -4 13 -34 -11z"/>
<path d="M2299 2049 c0 -2 -2 -12 -4 -21 -2 -9 3 -19 11 -22 9 -4 13 1 11 14
-3 18 -16 39 -18 29z"/>
<path d="M1886 2027 c3 -10 9 -15 12 -12 3 3 0 11 -7 18 -10 9 -11 8 -5 -6z"/>
<path d="M502 2014 c10 -10 20 -16 22 -13 3 3 -5 11 -17 18 -21 13 -21 12 -5
-5z"/>
<path d="M2450 2011 c-19 -11 -39 -17 -44 -14 -5 4 -6 1 -2 -5 5 -9 18 -6 45
8 21 10 42 16 46 12 5 -4 5 -1 1 6 -4 6 -8 12 -9 12 -1 -1 -18 -9 -37 -19z"/>
<path d="M315 2006 c-23 -25 -26 -40 -4 -19 12 12 21 24 18 27 -2 2 -9 -1 -14
-8z"/>
<path d="M620 2002 c0 -5 -10 -14 -22 -20 -23 -11 -23 -11 -2 -11 25 -1 51 24
34 34 -5 3 -10 2 -10 -3z"/>
<path d="M1860 1999 c0 -5 5 -7 10 -4 6 3 10 8 10 11 0 2 -4 4 -10 4 -5 0 -10
-5 -10 -11z"/>
<path d="M2637 1988 c9 -10 17 -18 19 -18 1 0 0 8 -3 18 -2 10 -11 19 -19 19
-11 0 -11 -4 3 -19z"/>
<path d="M2475 1990 c-8 -13 5 -13 25 0 13 8 13 10 -2 10 -9 0 -20 -4 -23 -10z"/>
<path d="M2347 1983 c-13 -12 -7 -25 6 -14 8 6 17 8 20 4 4 -3 7 -1 7 5 0 13
-22 16 -33 5z"/>
<path d="M247 1967 c-3 -8 -2 -20 3 -26 5 -9 8 -4 8 13 0 29 -3 32 -11 13z"/>
<path d="M270 1971 c0 -6 4 -13 10 -16 6 -3 7 1 4 9 -7 18 -14 21 -14 7z"/>
<path d="M430 1970 c-13 -8 -12 -10 3 -10 9 0 17 5 17 10 0 12 -1 12 -20 0z"/>
<path d="M460 1971 c0 -5 5 -13 10 -16 6 -3 10 -2 10 4 0 5 -4 13 -10 16 -5 3
-10 2 -10 -4z"/>
<path d="M2407 1956 c20 -26 27 -28 17 -3 -3 8 -12 18 -20 21 -11 4 -10 0 3
-18z"/>
<path d="M845 1959 c-4 -6 -4 -13 -1 -16 3 -3 1 -12 -6 -20 -13 -17 -10 -20
25 -27 24 -4 26 -3 17 14 -6 10 -15 22 -20 25 -6 3 -10 11 -10 16 0 6 5 7 12
3 7 -4 8 -3 4 4 -9 15 -13 15 -21 1z m25 -49 c0 -5 -2 -10 -4 -10 -3 0 -8 5
-11 10 -3 6 -1 10 4 10 6 0 11 -4 11 -10z"/>
<path d="M2455 1950 c-10 -11 -13 -20 -7 -20 6 0 16 9 22 20 6 11 9 20 7 20
-2 0 -12 -9 -22 -20z"/>
<path d="M2663 1956 c-4 -5 -1 -6 7 -1 10 6 12 3 8 -13 -5 -19 22 -62 39 -62
4 0 3 3 0 7 -4 3 -1 13 6 22 10 14 10 14 -4 4 -24 -19 -42 3 -24 31 13 20 13
22 -6 22 -11 0 -23 -5 -26 -10z"/>
<path d="M2550 1938 c0 -9 5 -20 10 -23 6 -4 8 -10 5 -15 -3 -5 4 -11 15 -15
11 -4 18 -10 15 -15 -3 -5 -1 -11 4 -14 5 -4 8 1 7 10 -1 8 -9 20 -17 25 -8 5
-9 9 -4 9 6 0 6 3 -1 8 -6 4 -16 16 -22 27 -10 17 -11 17 -12 3z"/>
<path d="M470 1931 c0 -16 72 -33 85 -20 7 7 5 8 -7 4 -11 -5 -18 -2 -18 5 0
6 -6 10 -12 7 -7 -2 -21 0 -30 5 -11 5 -18 5 -18 -1z"/>
<path d="M1991 1924 c0 -11 3 -14 6 -6 3 7 2 16 -1 19 -3 4 -6 -2 -5 -13z"/>
<path d="M380 1920 c-12 -7 -12 -10 3 -16 21 -8 29 -3 19 13 -5 8 -13 9 -22 3z"/>
<path d="M215 1909 c-4 -6 -5 -12 -2 -15 2 -3 7 2 10 11 7 17 1 20 -8 4z"/>
<path d="M2425 1909 c-4 -6 -5 -12 -2 -15 2 -3 7 2 10 11 7 17 1 20 -8 4z"/>
<path d="M238 1893 c7 -3 16 -2 19 1 4 3 -2 6 -13 5 -11 0 -14 -3 -6 -6z"/>
<path d="M420 1895 c0 -2 21 -18 46 -36 37 -25 45 -28 42 -14 -1 10 -11 19
-22 21 -10 1 -24 8 -30 15 -8 9 -8 10 2 5 6 -4 12 -2 12 3 0 6 -11 11 -25 11
-14 0 -25 -2 -25 -5z"/>
<path d="M1870 1872 c0 -18 5 -32 10 -32 6 0 8 11 4 28 -10 39 -14 40 -14 4z"/>
<path d="M831 1874 c0 -11 3 -14 6 -6 3 7 2 16 -1 19 -3 4 -6 -2 -5 -13z"/>
<path d="M2501 1870 c-13 -11 -29 -20 -37 -20 -7 0 -16 -5 -20 -12 -5 -8 -2
-9 12 -4 10 4 24 9 29 10 27 7 64 30 59 37 -8 13 -16 11 -43 -11z"/>
<path d="M2743 1875 c0 -8 4 -15 9 -15 4 0 8 4 8 9 0 6 -4 12 -8 15 -5 3 -9
-1 -9 -9z"/>
<path d="M199 1858 c-14 -13 -23 -31 -21 -42 2 -11 0 -16 -7 -12 -5 4 -15 -2
-21 -13 -7 -14 -7 -22 1 -27 7 -4 2 -15 -15 -31 -29 -27 -31 -34 -14 -51 15
-15 32 -16 23 -2 -3 6 -2 10 3 10 5 0 9 6 9 14 0 9 -6 12 -16 8 -14 -5 -14 -3
-2 11 7 9 17 15 21 12 15 -10 20 13 5 25 -7 6 -11 18 -8 26 4 12 8 12 20 -3 8
-10 12 -12 8 -5 -3 6 -1 12 5 12 8 0 10 9 5 27 -6 24 -5 25 12 12 16 -13 17
-12 5 2 -10 13 -10 18 1 28 8 6 18 7 22 3 5 -4 5 -1 1 6 -9 16 -9 16 -37 -10z
m-64 -158 c3 -5 1 -10 -4 -10 -6 0 -11 5 -11 10 0 6 2 10 4 10 3 0 8 -4 11
-10z"/>
<path d="M882 1866 c7 -8 15 -12 17 -11 5 6 -10 25 -20 25 -5 0 -4 -6 3 -14z"/>
<path d="M333 1858 c-23 -30 -24 -41 -2 -21 12 12 20 25 17 28 -3 3 -10 0 -15
-7z"/>
<path d="M2722 1854 c10 -10 20 -16 22 -13 3 3 -5 11 -17 18 -21 13 -21 12 -5
-5z"/>
<path d="M2002 1835 c0 -16 2 -22 5 -12 2 9 2 23 0 30 -3 6 -5 -1 -5 -18z"/>
<path d="M1511 1817 c-31 -21 -38 -22 -80 -12 -80 21 -140 -5 -161 -71 -9 -27
-8 -40 6 -70 23 -48 74 -80 168 -104 107 -27 120 -25 61 9 -60 34 -125 103
-125 131 0 20 32 60 49 60 4 0 22 -5 40 -11 28 -10 35 -9 55 10 49 46 77 -5
57 -102 -7 -33 -10 -61 -7 -64 2 -3 18 19 35 49 35 60 40 121 16 168 -20 38
-65 40 -114 7z"/>
<path d="M2755 1829 c-4 -6 -4 -13 -1 -16 3 -4 6 -1 6 6 0 7 9 3 20 -10 21
-27 27 -14 6 14 -15 20 -22 21 -31 6z"/>
<path d="M820 1801 c0 -17 5 -33 11 -37 6 -3 8 -17 5 -29 -3 -13 -2 -26 4 -30
5 -3 7 -12 4 -19 -3 -8 -1 -17 4 -20 8 -5 10 34 2 42 -4 3 -9 61 -10 95 0 15
-4 27 -10 27 -5 0 -10 -13 -10 -29z"/>
<path d="M910 1813 c0 -7 3 -13 8 -13 4 0 15 -12 24 -27 10 -16 18 -23 18 -18
0 6 -11 24 -25 40 -13 17 -24 24 -25 18z"/>
<path d="M295 1801 c-3 -5 0 -13 6 -17 7 -4 9 -3 5 4 -3 5 0 13 6 15 9 4 10 6
1 6 -6 1 -14 -3 -18 -8z"/>
<path d="M370 1800 c0 -5 4 -10 9 -10 6 0 13 5 16 10 3 6 -1 10 -9 10 -9 0
-16 -4 -16 -10z"/>
<path d="M2610 1800 c0 -5 4 -10 9 -10 6 0 13 5 16 10 3 6 -1 10 -9 10 -9 0
-16 -4 -16 -10z"/>
<path d="M405 1790 c-4 -6 -4 -10 -1 -10 2 0 11 -3 20 -6 9 -3 16 -2 16 4 0
14 -28 23 -35 12z"/>
<path d="M1861 1784 c0 -11 3 -14 6 -6 3 7 2 16 -1 19 -3 4 -6 -2 -5 -13z"/>
<path d="M2550 1780 c-13 -11 -29 -20 -37 -20 -7 0 -13 -4 -13 -10 0 -11 29
-2 51 17 9 7 19 10 22 6 4 -3 7 -1 7 6 0 7 5 9 12 5 7 -4 8 -3 4 4 -10 17 -20
15 -46 -8z"/>
<path d="M2776 1738 c3 -13 12 -33 18 -46 11 -20 14 -21 31 -8 17 12 18 17 7
28 -11 11 -12 10 -7 -4 5 -13 2 -18 -9 -18 -9 0 -15 3 -14 8 2 10 -20 62 -27
62 -4 0 -3 -10 1 -22z"/>
<path d="M260 1719 c0 -5 5 -7 10 -4 6 3 10 8 10 11 0 2 -4 4 -10 4 -5 0 -10
-5 -10 -11z"/>
<path d="M2562 1709 c-37 -34 -13 -107 31 -93 14 4 17 3 12 -6 -5 -9 -4 -11 3
-6 22 13 12 28 -14 23 -20 -3 -27 0 -33 17 -18 46 9 72 72 70 58 -2 53 9 -7
13 -31 2 -48 -2 -64 -18z"/>
<path d="M314 1708 c-4 -7 -3 -8 5 -4 6 4 17 3 24 -2 7 -5 19 -9 27 -9 8 -1
24 -4 35 -7 12 -5 10 -2 -5 7 -38 22 -78 29 -86 15z"/>
<path d="M989 1703 c-13 -16 -12 -17 4 -4 16 13 21 21 13 21 -2 0 -10 -8 -17
-17z"/>
<path d="M1960 1679 c-6 -23 -9 -43 -7 -46 3 -2 8 11 12 29 4 18 12 39 17 46
7 8 7 12 0 12 -6 0 -16 -18 -22 -41z"/>
<path d="M1011 1693 c-1 -17 16 -25 25 -12 4 7 3 9 -4 5 -5 -3 -13 0 -15 6 -4
9 -6 10 -6 1z"/>
<path d="M1813 1675 c-8 -9 -9 -16 -3 -20 6 -3 10 -1 10 5 0 6 4 9 8 6 5 -3 9
1 9 9 0 19 -8 18 -24 0z"/>
<path d="M2683 1678 c4 -11 -4 -25 -24 -43 -17 -14 -26 -25 -20 -25 5 0 13 5
16 10 4 6 11 8 16 5 5 -4 9 -1 9 5 0 6 4 9 8 6 11 -7 9 40 -2 51 -5 5 -7 1 -3
-9z"/>
<path d="M96 1657 c-3 -14 1 -29 14 -42 11 -11 20 -14 20 -8 0 7 -8 16 -17 22
-14 7 -15 12 -5 24 8 9 9 18 4 21 -6 3 -12 -4 -16 -17z"/>
<path d="M380 1670 c0 -5 5 -10 11 -10 5 0 7 5 4 10 -3 6 -8 10 -11 10 -2 0
-4 -4 -4 -10z"/>
<path d="M2825 1666 c-16 -12 -17 -17 -7 -37 11 -24 11 -24 6 4 -4 17 -2 27 6
27 6 0 8 -6 4 -12 -5 -10 -4 -10 6 -1 20 19 8 36 -15 19z"/>
<path d="M279 1659 c-8 -5 -8 -8 0 -13 6 -4 11 -3 11 3 0 5 11 8 25 5 14 -2
34 0 43 6 13 8 7 10 -26 8 -23 -1 -47 -5 -53 -9z"/>
<path d="M125 1651 c-3 -5 -2 -12 3 -15 5 -3 9 1 9 9 0 17 -3 19 -12 6z"/>
<path d="M862 1653 c-6 -2 -10 -9 -6 -14 8 -14 21 -11 21 6 0 8 -1 15 -1 14
-1 0 -7 -3 -14 -6z"/>
<path d="M251 1642 c-1 -8 -6 -10 -13 -6 -10 5 -10 4 -1 -6 15 -16 28 -8 20
12 -4 11 -6 11 -6 0z"/>
<path d="M1063 1636 c-10 -11 -9 -15 3 -20 8 -3 12 -2 9 3 -3 6 3 14 12 20 14
8 15 10 3 10 -8 0 -20 -6 -27 -13z"/>
<path d="M1767 1622 c-23 -24 -24 -28 -8 -28 12 0 17 5 13 15 -3 9 -1 12 6 7
7 -4 12 -1 12 9 0 10 5 13 12 9 7 -4 8 -3 4 4 -9 16 -8 16 -39 -16z"/>
<path d="M270 1625 c0 -7 30 -13 34 -7 3 4 -4 9 -15 9 -10 1 -19 0 -19 -2z"/>
<path d="M313 1607 c-3 -5 -1 -7 5 -3 6 3 13 2 17 -3 3 -5 14 -9 25 -8 10 1
17 4 14 8 -7 12 -54 17 -61 6z"/>
<path d="M1935 1609 c-4 -6 -5 -12 -2 -15 2 -3 7 2 10 11 7 17 1 20 -8 4z"/>
<path d="M2854 1605 c-4 -8 -10 -13 -14 -10 -11 7 -1 -75 11 -95 7 -11 9 -8 7
15 -1 17 -6 36 -12 43 -6 8 -5 17 1 23 11 11 22 -10 28 -54 4 -34 17 -78 21
-74 4 4 -18 125 -26 147 -1 3 -2 8 -1 13 2 13 -9 7 -15 -8z"/>
<path d="M1154 1598 c1 -7 16 -14 32 -15 24 -2 26 0 11 8 -9 6 -21 8 -26 4 -5
-3 -12 0 -14 5 -3 6 -4 5 -3 -2z"/>
<path d="M75 1590 c-3 -5 -1 -10 4 -10 6 0 11 5 11 10 0 6 -2 10 -4 10 -3 0
-8 -4 -11 -10z"/>
<path d="M880 1590 c0 -5 5 -10 11 -10 5 0 7 5 4 10 -3 6 -8 10 -11 10 -2 0
-4 -4 -4 -10z"/>
<path d="M99 1548 c-17 -61 -18 -69 -8 -62 5 3 7 9 4 14 -3 4 -1 10 3 12 9 3
24 78 17 78 -2 0 -10 -19 -16 -42z"/>
<path d="M2236 1548 c-18 -117 -154 -236 -425 -373 -253 -126 -479 -181 -726
-173 -116 3 -137 6 -183 29 -29 14 -52 24 -52 21 0 -2 9 -19 20 -36 43 -70
178 -113 326 -102 98 7 273 37 354 60 158 47 379 155 490 241 78 61 173 163
200 215 24 48 30 113 13 144 -9 16 -11 11 -17 -26z"/>
<path d="M925 1570 c6 -9 1 -10 -16 -5 -13 3 -19 3 -14 -2 6 -5 13 -12 16 -16
3 -4 12 -1 18 7 9 11 9 16 0 22 -8 5 -9 3 -4 -6z"/>
<path d="M1221 1564 c0 -11 3 -14 6 -6 3 7 2 16 -1 19 -3 4 -6 -2 -5 -13z"/>
<path d="M1716 1561 c-10 -11 -13 -21 -7 -25 10 -7 24 10 27 32 3 16 0 15 -20
-7z"/>
<path d="M1886 1573 c-10 -10 -7 -23 5 -23 5 0 7 5 4 10 -3 6 -2 10 4 10 5 0
11 -5 13 -12 3 -8 6 -7 10 3 6 15 -23 24 -36 12z"/>
<path d="M206 1539 c-9 -47 -8 -49 21 -49 25 0 25 14 0 15 -13 1 -13 7 -2 43
3 12 2 22 -3 22 -5 0 -12 -14 -16 -31z"/>
<path d="M2687 1563 c-3 -2 -20 -5 -38 -6 -18 -1 -34 -8 -37 -16 -3 -9 0 -11
9 -6 7 5 22 10 34 12 11 1 29 4 40 6 11 3 26 0 33 -6 8 -6 12 -6 12 2 0 6 -3
11 -7 12 -5 0 -16 2 -25 4 -9 2 -19 1 -21 -2z"/>
<path d="M1280 1548 c11 -14 52 -19 44 -6 -4 5 -12 7 -19 4 -7 -2 -18 0 -24 5
-8 6 -8 5 -1 -3z"/>
<path d="M270 1535 c0 -8 5 -15 10 -15 6 0 10 7 10 15 0 8 -4 15 -10 15 -5 0
-10 -7 -10 -15z"/>
<path d="M350 1540 c0 -5 5 -10 11 -10 5 0 7 5 4 10 -3 6 -8 10 -11 10 -2 0
-4 -4 -4 -10z"/>
<path d="M2580 1540 c0 -5 5 -10 10 -10 6 0 10 5 10 10 0 6 -4 10 -10 10 -5 0
-10 -4 -10 -10z"/>
<path d="M926 1532 c-3 -5 14 -26 36 -48 23 -21 36 -31 29 -22 -7 9 -9 23 -5
29 5 8 3 9 -5 4 -13 -8 -54 28 -44 39 4 3 4 6 0 6 -3 0 -8 -4 -11 -8z"/>
<path d="M1365 1530 c6 -10 64 -24 71 -17 3 2 -13 9 -36 15 -22 5 -38 6 -35 2z"/>
<path d="M1676 1532 c-3 -5 1 -9 9 -9 8 0 12 4 9 9 -3 4 -7 8 -9 8 -2 0 -6 -4
-9 -8z"/>
<path d="M1876 1532 c5 -4 12 -11 15 -15 3 -5 9 -2 12 5 3 9 -3 14 -15 15 -11
1 -16 -1 -12 -5z"/>
<path d="M1730 1519 c-12 -7 -12 -9 -1 -9 11 0 11 -3 1 -15 -11 -13 -14 -13
-26 2 -7 10 -14 13 -14 7 0 -6 6 -17 13 -23 11 -8 19 -5 36 13 23 25 17 42 -9
25z"/>
<path d="M261 1494 c0 -11 3 -14 6 -6 3 7 2 16 -1 19 -3 4 -6 -2 -5 -13z"/>
<path d="M284 1490 c0 -15 6 -18 28 -16 15 2 29 -2 32 -8 2 -6 5 -3 5 7 1 11
-6 17 -22 17 -13 0 -27 4 -33 10 -6 6 -10 3 -10 -10z"/>
<path d="M2630 1480 c0 -5 7 -7 15 -4 8 4 15 8 15 10 0 2 -7 4 -15 4 -8 0 -15
-4 -15 -10z"/>
<path d="M2720 1463 c-13 -15 -12 -16 4 -10 10 4 22 7 27 7 5 0 9 5 9 10 0 15
-23 11 -40 -7z"/>
<path d="M2606 1462 c-4 -3 -6 -10 -6 -16 0 -6 5 -4 10 4 5 8 10 10 10 5 0
-17 73 -12 77 5 3 11 2 11 -4 3 -6 -8 -20 -9 -45 -4 -20 5 -39 6 -42 3z"/>
<path d="M2851 1460 c0 -8 4 -24 9 -35 l9 -20 0 20 c0 11 -4 27 -9 35 -9 13
-10 13 -9 0z"/>
<path d="M1580 1451 c0 -8 50 -34 56 -29 1 2 -11 11 -27 20 -16 9 -29 14 -29
9z"/>
<path d="M1898 1442 c-3 -9 -1 -26 3 -37 6 -15 8 -11 8 18 1 40 -4 48 -11 19z"/>
<path d="M1742 1436 c7 -8 15 -12 17 -11 5 6 -10 25 -20 25 -5 0 -4 -6 3 -14z"/>
<path d="M2897 1377 c6 -81 13 -86 13 -9 0 33 -4 63 -9 66 -5 4 -7 -21 -4 -57z"/>
<path d="M42 1400 c0 -19 2 -27 5 -17 2 9 2 25 0 35 -3 9 -5 1 -5 -18z"/>
<path d="M325 1408 c3 -34 -15 -56 -38 -50 -13 3 -18 1 -13 -6 8 -14 47 -7 58
10 10 17 10 68 0 68 -5 0 -8 -10 -7 -22z"/>
<path d="M1062 1410 c5 -18 88 -66 88 -51 0 6 -7 11 -16 11 -13 0 -14 3 -4 14
10 13 7 14 -16 10 -20 -4 -33 0 -42 13 -10 12 -13 13 -10 3z"/>
<path d="M1770 1414 c0 -6 7 -19 16 -30 14 -18 14 -18 3 6 -14 31 -19 36 -19
24z"/>
<path d="M180 1401 c0 -6 4 -12 8 -15 5 -3 9 1 9 9 0 8 -4 15 -9 15 -4 0 -8
-4 -8 -9z"/>
<path d="M1615 1401 c-3 -5 -2 -12 3 -15 5 -3 9 1 9 9 0 17 -3 19 -12 6z"/>
<path d="M2610 1390 c0 -5 7 -7 15 -4 8 4 15 1 15 -6 0 -6 4 -9 9 -6 5 4 12 0
14 -6 4 -10 6 -9 6 1 1 11 4 11 16 1 9 -7 18 -10 22 -7 7 8 -58 37 -82 37 -8
0 -15 -4 -15 -10z"/>
<path d="M1676 1376 c3 -8 13 -17 22 -21 13 -5 13 -2 -3 15 -21 24 -26 25 -19
6z"/>
<path d="M190 1365 c0 -9 62 -36 73 -32 7 2 -5 12 -27 21 -42 17 -46 18 -46
11z"/>
<path d="M1175 1361 c-3 -5 -2 -12 3 -15 5 -3 9 1 9 9 0 17 -3 19 -12 6z"/>
<path d="M1619 1353 c-13 -16 -12 -17 4 -4 9 7 17 15 17 17 0 8 -8 3 -21 -13z"/>
<path d="M1910 1349 c0 -5 -4 -8 -9 -4 -5 3 -12 1 -15 -4 -4 -5 2 -8 11 -7 15
3 33 26 19 26 -3 0 -6 -5 -6 -11z"/>
<path d="M1796 1337 c3 -10 9 -15 12 -12 3 3 0 11 -7 18 -10 9 -11 8 -5 -6z"/>
<path d="M2663 1332 c0 -12 5 -22 9 -22 11 0 10 12 -2 30 -7 12 -9 10 -7 -8z"/>
<path d="M2699 1330 c-21 -14 -2 -24 23 -13 17 7 19 11 6 15 -8 4 -21 2 -29
-2z"/>
<path d="M40 1320 c0 -5 5 -10 11 -10 5 0 7 5 4 10 -3 6 -8 10 -11 10 -2 0 -4
-4 -4 -10z"/>
<path d="M1250 1322 c0 -16 32 -24 44 -11 8 9 8 10 -2 5 -7 -4 -19 -2 -27 4
-9 7 -15 8 -15 2z"/>
<path d="M1696 1314 c-6 -15 -4 -15 11 -3 10 7 20 15 22 16 2 2 -3 3 -11 3 -9
0 -19 -7 -22 -16z"/>
<path d="M1336 1308 c3 -5 10 -6 15 -3 13 9 11 12 -6 12 -8 0 -12 -4 -9 -9z"/>
<path d="M1824 1309 c-3 -6 -1 -16 5 -22 9 -9 10 -7 5 7 -6 15 -4 17 6 11 9
-5 11 -4 6 3 -9 15 -13 15 -22 1z"/>
<path d="M1890 1315 c0 -2 6 -8 13 -14 10 -8 14 -7 14 2 0 8 -6 14 -14 14 -7
0 -13 -1 -13 -2z"/>
<path d="M2641 1313 c-1 -7 -8 -10 -16 -7 -9 4 -15 0 -15 -10 0 -18 8 -20 29
-7 7 5 11 15 8 22 -4 9 -6 10 -6 2z"/>
<path d="M1720 1306 c0 -2 7 -9 15 -16 13 -11 14 -10 9 4 -5 14 -24 23 -24 12z"/>
<path d="M1305 1291 c-6 -11 13 -26 22 -17 4 3 1 6 -6 6 -7 0 -9 5 -6 10 3 6
4 10 1 10 -3 0 -7 -4 -11 -9z"/>
<path d="M1861 1290 c-10 -5 -9 -8 2 -13 7 -3 19 -2 26 3 10 5 9 8 -2 13 -7 3
-19 2 -26 -3z"/>
<path d="M44 1235 c0 -25 3 -39 7 -33 7 11 4 66 -4 74 -2 2 -4 -16 -3 -41z"/>
<path d="M1798 1273 c0 -5 -2 -15 -2 -23 -1 -10 -10 -14 -27 -13 -15 1 -26 -4
-26 -11 0 -7 6 -13 14 -13 7 0 13 4 13 9 0 4 3 7 8 7 22 -4 30 4 28 26 -1 25
-5 32 -8 18z"/>
<path d="M77 1251 c-4 -17 -3 -21 5 -13 5 5 8 16 6 23 -3 8 -7 3 -11 -10z"/>
<path d="M1355 1260 c17 -30 110 -120 125 -121 9 0 10 -2 3 -5 -7 -3 -9 -12
-6 -20 7 -20 20 -17 26 5 4 15 -2 22 -24 30 -26 9 -55 52 -51 73 1 4 -4 5 -11
2 -8 -3 -26 8 -42 23 -16 15 -25 21 -20 13z"/>
<path d="M1820 1254 c0 -8 5 -12 10 -9 6 3 10 10 10 16 0 5 -4 9 -10 9 -5 0
-10 -7 -10 -16z"/>
<path d="M2862 1240 c0 -14 2 -19 5 -12 2 6 2 18 0 25 -3 6 -5 1 -5 -13z"/>
<path d="M2894 1224 c0 -19 3 -34 6 -34 9 0 11 58 2 64 -4 2 -8 -11 -8 -30z"/>
<path d="M2614 1233 c0 -10 -4 -28 -8 -40 -5 -14 -3 -23 3 -23 6 0 10 3 10 8
-4 27 4 44 28 53 14 5 29 6 32 2 9 -12 91 -14 91 -3 0 6 -15 10 -32 10 -18 0
-53 2 -78 5 -39 4 -46 3 -46 -12z"/>
<path d="M1681 1186 c-10 -12 -9 -14 5 -12 10 2 20 8 22 14 5 17 -13 15 -27
-2z"/>
<path d="M86 1167 c3 -10 9 -15 12 -12 3 3 0 11 -7 18 -10 9 -11 8 -5 -6z"/>
<path d="M1548 1163 c-22 -5 -24 -29 -3 -37 8 -3 15 -1 15 5 0 6 5 7 10 4 6
-3 10 -1 10 4 0 6 -5 11 -11 11 -5 0 -7 5 -4 10 3 6 5 9 3 9 -2 -1 -11 -3 -20
-6z"/>
<path d="M2850 1161 c0 -6 4 -13 10 -16 6 -3 7 1 4 9 -7 18 -14 21 -14 7z"/>
<path d="M50 1148 c0 -7 5 -20 10 -28 8 -12 10 -9 10 13 0 15 -4 27 -10 27 -5
0 -10 -6 -10 -12z"/>
<path d="M1600 1150 c-8 -5 -10 -10 -5 -10 6 0 17 5 25 10 8 5 11 10 5 10 -5
0 -17 -5 -25 -10z"/>
<path d="M2880 1150 c0 -5 5 -10 11 -10 5 0 7 5 4 10 -3 6 -8 10 -11 10 -2 0
-4 -4 -4 -10z"/>
<path d="M2847 1115 c-6 -15 10 -32 20 -21 4 3 1 6 -5 6 -6 0 -9 7 -6 15 4 8
4 15 1 15 -3 0 -7 -7 -10 -15z"/>
<path d="M100 1083 c0 -9 -8 -26 -17 -37 -16 -19 -16 -19 -1 -7 9 7 21 10 26
7 4 -3 6 8 4 25 -5 31 -12 39 -12 12z"/>
<path d="M2865 1065 c-16 -51 -16 -50 -25 -35 -6 8 -10 11 -10 5 1 -19 28 -47
35 -36 3 6 1 11 -6 11 -8 0 -8 4 2 16 7 9 13 24 14 35 2 23 -4 25 -10 4z"/>
<path d="M1871 1042 c-14 -26 -14 -32 1 -32 6 0 8 3 5 7 -4 3 -2 12 5 20 6 7
8 16 5 19 -3 3 -10 -3 -16 -14z"/>
<path d="M105 1020 c-4 -6 -11 -8 -16 -5 -5 4 -9 1 -9 -4 0 -6 5 -11 11 -11 6
0 8 -7 5 -17 -6 -15 -5 -15 13 1 11 10 17 24 14 32 -6 17 -10 17 -18 4z"/>
<path d="M1784 995 c-4 -11 -10 -12 -18 -6 -8 6 -17 6 -26 0 -13 -9 -13 -10 0
-6 8 2 26 -5 40 -17 16 -14 20 -15 11 -3 -7 9 -9 17 -4 17 5 0 10 7 10 15 0
19 -6 19 -13 0z"/>
<path d="M1815 1000 c-3 -5 -1 -10 4 -10 6 0 11 5 11 10 0 6 -2 10 -4 10 -3 0
-8 -4 -11 -10z"/>
<path d="M1860 983 c-27 -33 -41 -71 -27 -79 7 -4 9 -4 5 0 -4 4 5 28 18 52
26 47 27 55 4 27z"/>
<path d="M115 970 c-10 -11 -16 -22 -14 -24 2 -2 12 7 22 20 22 29 17 32 -8 4z"/>
<path d="M1674 958 c-4 -7 -4 -10 1 -6 4 4 16 3 26 -3 11 -5 19 -7 19 -5 0 3
-9 10 -19 16 -15 7 -22 7 -27 -2z"/>
<path d="M136 945 c4 -8 8 -15 10 -15 2 0 4 7 4 15 0 8 -4 15 -10 15 -5 0 -7
-7 -4 -15z"/>
<path d="M2821 946 c-9 -11 -9 -15 1 -18 10 -4 10 -9 -2 -24 -12 -17 -12 -17
0 -6 8 7 15 24 15 37 1 29 1 29 -14 11z"/>
<path d="M2782 898 c-8 -22 -8 -35 -1 -44 7 -9 5 -18 -10 -33 -12 -12 -16 -21
-10 -21 8 0 8 -5 -1 -15 -9 -11 -16 -12 -25 -5 -8 7 -429 10 -1269 10 -692 0
-1263 3 -1269 7 -7 3 -4 -3 6 -14 14 -16 15 -23 6 -29 -8 -5 -10 -3 -4 6 5 8
4 11 -3 6 -6 -4 -8 -14 -5 -24 10 -26 33 -58 33 -45 0 7 -5 15 -10 18 -15 9
-12 22 6 29 12 4 15 2 10 -9 -3 -8 0 -15 6 -15 6 0 9 -3 5 -6 -3 -4 3 -14 15
-24 16 -13 18 -19 8 -25 -8 -5 -11 -4 -6 3 3 6 2 13 -4 17 -5 3 -10 1 -10 -5
0 -6 -6 -8 -12 -5 -7 4 -6 1 3 -7 9 -7 14 -19 12 -25 -3 -7 0 -13 7 -13 6 0 9
4 6 9 -3 5 1 12 10 15 8 3 13 2 10 -3 -3 -5 1 -14 9 -21 11 -9 12 -16 5 -25
-7 -9 -7 -15 -1 -19 5 -4 12 -2 16 3 3 6 14 3 25 -7 22 -18 26 -32 9 -32 -5 0
-8 4 -5 9 3 5 -1 11 -9 15 -23 8 -26 -9 -5 -27 11 -10 22 -12 25 -6 9 13 25 1
19 -15 -8 -21 28 -58 46 -46 11 7 11 10 2 10 -7 0 -11 4 -7 9 3 5 0 13 -6 17
-7 4 -9 3 -5 -4 3 -6 2 -13 -4 -17 -5 -3 -11 0 -12 7 0 7 -2 18 -2 23 -1 6 -5
16 -9 22 -5 7 -5 17 -2 23 8 12 2205 14 2205 2 0 -4 -5 -13 -12 -20 -9 -9 -9
-12 1 -12 7 0 10 -4 7 -9 -4 -5 2 -8 11 -7 10 2 31 19 47 40 26 31 28 40 18
56 -8 14 -9 21 0 26 6 4 8 3 5 -3 -4 -6 0 -14 9 -17 21 -8 24 -8 24 5 0 5 -6
7 -12 4 -7 -4 -4 1 7 11 17 14 17 16 3 11 -10 -4 -18 -2 -18 3 0 6 5 10 11 10
5 0 7 6 3 13 -6 9 -4 9 8 -1 13 -10 18 -10 24 -1 4 8 3 9 -4 5 -18 -11 -15 29
3 44 8 6 19 9 24 6 5 -4 13 -1 17 5 4 7 3 9 -4 5 -6 -3 -13 -2 -17 4 -6 9 7
14 28 11 4 0 7 6 7 14 0 25 1 29 23 59 14 20 17 31 9 34 -7 2 -9 15 -5 33 7
38 0 37 -15 -3z m-1922 -159 c0 -12 7 -19 18 -19 41 0 57 -54 25 -83 -12 -10
-28 -13 -45 -10 -27 5 -28 8 -28 67 0 35 3 66 6 69 11 10 24 -3 24 -24z m437
15 c2 -5 -6 -10 -17 -10 -20 0 -25 7 -13 20 9 8 26 3 30 -10z m961 -3 c3 -8
-4 -10 -21 -6 -28 8 -47 -12 -26 -27 11 -7 11 -11 2 -15 -7 -2 -13 -20 -13
-39 0 -46 -20 -43 -22 4 -2 53 1 74 13 88 12 15 61 12 67 -5z m-1868 -46 l13
-40 11 39 c6 22 17 41 25 44 9 3 11 -2 8 -14 -3 -11 -11 -38 -17 -61 -19 -74
-51 -49 -66 50 -8 51 8 41 26 -18z m570 45 c0 -5 -4 -10 -10 -10 -5 0 -10 5
-10 10 0 6 5 10 10 10 6 0 10 -4 10 -10z m1605 0 c-3 -5 -11 -10 -16 -10 -6 0
-7 5 -4 10 3 6 11 10 16 10 6 0 7 -4 4 -10z m-1975 -15 c0 -8 8 -15 18 -15 16
-1 16 -1 0 -14 -23 -17 -23 -52 -2 -64 20 -11 3 -25 -20 -16 -10 4 -16 18 -16
38 0 18 -5 37 -12 44 -9 9 -9 12 0 12 7 0 12 7 12 15 0 8 5 15 10 15 6 0 10
-7 10 -15z m770 0 c0 -8 7 -15 15 -15 8 0 15 -4 15 -10 0 -5 -7 -10 -15 -10
-21 0 -20 -46 1 -58 20 -11 3 -25 -19 -16 -24 9 -30 124 -6 124 5 0 9 -7 9
-15z m592 -33 c-16 -5 -16 -62 0 -62 9 0 9 -3 0 -12 -28 -28 -62 62 -40 105 9
18 11 18 31 -4 14 -15 17 -24 9 -27z m540 0 c-16 -5 -16 -62 0 -62 9 0 9 -3 0
-12 -17 -17 -42 8 -42 42 0 34 -8 42 -31 29 -12 -6 -19 -21 -19 -39 0 -17 -4
-30 -10 -30 -5 0 -10 20 -10 45 0 44 0 45 34 45 22 0 36 6 40 17 6 14 9 13 28
-7 15 -16 18 -25 10 -28z m-1954 -24 c2 -29 -1 -39 -17 -48 -42 -22 -84 27
-61 70 9 16 19 20 43 18 29 -3 32 -7 35 -40z m140 28 c-11 -8 -18 -26 -18 -45
0 -21 -5 -31 -15 -31 -11 0 -15 12 -15 45 0 44 1 45 33 45 29 -1 30 -2 15 -14z
m90 -13 c3 -19 -1 -23 -23 -23 -28 0 -31 -24 -4 -26 31 -3 33 -5 16 -15 -41
-24 -89 45 -55 79 21 21 63 10 66 -15z m192 -19 c0 -32 -4 -44 -12 -42 -14 5
-23 51 -14 74 11 30 26 12 26 -32z m94 30 c11 -27 7 -34 -20 -34 -16 0 -24 -5
-21 -12 2 -7 11 -13 20 -13 25 0 30 -13 8 -20 -47 -14 -84 48 -49 83 17 17 55
15 62 -4z m104 -31 c2 -26 -1 -43 -7 -43 -6 0 -11 16 -11 36 0 28 -3 35 -17
32 -12 -2 -19 -14 -21 -36 -5 -48 -22 -39 -22 12 l0 44 38 -1 c36 -2 37 -3 40
-44z m156 31 c10 -27 7 -34 -18 -34 -14 0 -27 -4 -30 -9 -7 -11 22 -23 35 -15
5 3 9 0 9 -6 0 -17 -26 -23 -49 -10 -39 20 -24 90 19 90 16 0 30 -7 34 -16z
m146 6 c0 -5 -7 -10 -15 -10 -10 0 -15 -11 -15 -35 0 -24 -5 -35 -15 -35 -11
0 -15 12 -15 45 0 43 1 45 30 45 17 0 30 -4 30 -10z m78 -17 c3 -19 -1 -23
-22 -23 -14 0 -26 -4 -26 -10 0 -10 14 -14 38 -11 17 3 15 -16 -4 -23 -38 -15
-75 35 -54 74 16 29 64 24 68 -7z m240 -20 c2 -26 -1 -43 -7 -43 -6 0 -12 6
-13 13 0 6 -2 17 -3 22 -2 6 -3 16 -4 23 -3 29 -21 9 -21 -23 0 -24 -5 -35
-15 -35 -11 0 -15 12 -15 46 l0 45 38 -3 c36 -3 37 -4 40 -45z m100 35 c19
-19 14 -55 -10 -72 -28 -20 -33 -20 -52 0 -32 31 -14 84 29 84 12 0 26 -5 33
-12z m152 3 c0 -5 -7 -11 -15 -15 -9 -3 -15 -18 -15 -36 0 -16 -4 -30 -10 -30
-5 0 -10 20 -10 45 0 41 2 45 25 45 14 0 25 -4 25 -9z m78 -3 c20 -20 14 -38
-12 -38 -14 0 -27 -4 -30 -9 -7 -11 22 -23 35 -15 5 3 9 1 9 -4 0 -16 -30 -23
-51 -12 -19 11 -28 68 -12 83 11 11 48 8 61 -5z m152 -33 c0 -25 -4 -45 -10
-45 -5 0 -10 20 -10 45 0 25 5 45 10 45 6 0 10 -20 10 -45z m94 29 c11 -27 7
-34 -20 -34 -16 0 -24 -5 -21 -12 2 -7 11 -12 21 -10 20 4 22 -16 2 -24 -20
-8 -52 11 -58 34 -9 34 9 62 41 62 17 0 31 -6 35 -16z m230 0 c11 -27 7 -34
-20 -34 -16 0 -24 -5 -21 -12 2 -7 11 -12 21 -10 21 4 21 -14 0 -22 -24 -9
-54 12 -54 39 0 40 11 55 40 55 16 0 30 -7 34 -16z m-1371 -31 c-7 -2 -19 -2
-25 0 -7 3 -2 5 12 5 14 0 19 -2 13 -5z m420 0 c-7 -2 -19 -2 -25 0 -7 3 -2 5
12 5 14 0 19 -2 13 -5z m1017 -64 c0 -16 -36 -59 -44 -52 -3 3 -6 1 -6 -6 0
-7 -5 -9 -10 -6 -13 8 6 35 23 32 6 -1 12 4 13 11 1 6 2 17 3 22 1 14 21 13
21 -1z"/>
<path d="M860 675 c0 -16 6 -25 15 -25 9 0 15 9 15 25 0 16 -6 25 -15 25 -9 0
-15 -9 -15 -25z"/>
<path d="M480 675 c0 -18 5 -25 20 -25 15 0 20 7 20 25 0 18 -5 25 -20 25 -15
0 -20 -7 -20 -25z"/>
<path d="M725 690 c4 -6 11 -8 16 -5 14 9 11 15 -7 15 -8 0 -12 -5 -9 -10z"/>
<path d="M1010 690 c0 -5 4 -10 9 -10 6 0 13 5 16 10 3 6 -1 10 -9 10 -9 0
-16 -4 -16 -10z"/>
<path d="M1268 693 c6 -2 18 -2 25 0 6 3 1 5 -13 5 -14 0 -19 -2 -12 -5z"/>
<path d="M1495 690 c3 -5 10 -10 16 -10 5 0 9 5 9 10 0 6 -7 10 -16 10 -8 0
-12 -4 -9 -10z"/>
<path d="M1824 685 c-7 -18 3 -35 22 -35 8 0 14 10 14 25 0 27 -27 35 -36 10z"/>
<path d="M2065 690 c4 -6 11 -8 16 -5 14 9 11 15 -7 15 -8 0 -12 -5 -9 -10z"/>
<path d="M2308 693 c7 -3 16 -2 19 1 4 3 -2 6 -13 5 -11 0 -14 -3 -6 -6z"/>
<path d="M2540 690 c0 -5 5 -10 10 -10 6 0 10 5 10 10 0 6 -4 10 -10 10 -5 0
-10 -4 -10 -10z"/>
<path d="M150 909 c0 -8 7 -23 15 -33 8 -10 12 -23 8 -29 -3 -6 -1 -7 5 -3 9
5 8 16 -4 39 -21 40 -24 44 -24 26z"/>
<path d="M1530 894 c-15 -27 -6 -44 13 -24 9 10 9 11 0 6 -7 -4 -13 -3 -13 2
0 5 10 13 22 19 18 8 19 11 6 15 -10 4 -20 -2 -28 -18z"/>
<path d="M141 864 c0 -11 3 -14 6 -6 3 7 2 16 -1 19 -3 4 -6 -2 -5 -13z"/>
<path d="M1784 858 c-13 -20 -13 -38 -2 -38 6 0 8 6 5 14 -3 8 -1 17 6 19 7 2
9 7 6 11 -4 4 -11 1 -15 -6z"/>
<path d="M2756 833 c-6 -14 -5 -15 5 -6 7 7 10 15 7 18 -3 3 -9 -2 -12 -12z"/>
<path d="M154 823 c2 -10 6 -17 10 -16 15 3 16 11 2 22 -12 10 -14 9 -12 -6z"/>
<path d="M1523 823 c9 -2 23 -2 30 0 6 3 -1 5 -18 5 -16 0 -22 -2 -12 -5z"/>
<path d="M1588 823 c6 -2 18 -2 25 0 6 3 1 5 -13 5 -14 0 -19 -2 -12 -5z"/>
<path d="M1330 520 c-10 -14 -16 -16 -22 -7 -6 9 -8 9 -8 0 0 -19 17 -24 32
-10 7 8 19 12 26 9 7 -2 12 4 11 15 0 12 -2 14 -6 4 -4 -9 -8 -10 -12 -2 -5 7
-12 4 -21 -9z"/>
<path d="M1985 516 c-21 -13 -40 -31 -41 -40 -1 -9 2 -14 7 -10 5 3 7 10 4 15
-9 13 9 11 24 -3 8 -7 11 -8 8 -3 -7 13 1 25 28 45 20 15 20 14 1 -8 -21 -24
-11 -29 17 -8 14 11 15 15 4 24 -10 8 -23 5 -52 -12z"/>
<path d="M2550 522 c0 -7 -4 -11 -9 -8 -5 4 -7 -3 -4 -14 3 -12 0 -20 -6 -20
-7 0 -9 6 -5 13 4 6 -4 2 -17 -10 -19 -19 -21 -25 -10 -35 12 -11 13 -10 8 5
-5 12 -1 17 11 17 10 0 26 6 36 13 15 11 17 18 8 33 -7 11 -12 13 -12 6z"/>
<path d="M943 473 c0 -10 4 -10 11 -3 16 16 39 12 32 -5 -5 -13 9 -18 40 -14
4 0 11 -5 16 -13 7 -9 8 -8 6 7 -3 13 -11 19 -23 18 -11 -1 -24 5 -28 13 -10
17 -54 15 -54 -3z"/>
<path d="M415 460 c-3 -5 -1 -10 4 -10 6 0 11 5 11 10 0 6 -2 10 -4 10 -3 0
-8 -4 -11 -10z"/>
<path d="M450 458 c0 -7 10 -14 21 -15 12 -1 20 -1 18 0 -2 2 -12 9 -21 16
-15 11 -18 11 -18 -1z"/>
<path d="M1906 458 c3 -5 10 -6 15 -3 13 9 11 12 -6 12 -8 0 -12 -4 -9 -9z"/>
<path d="M2053 453 c-7 -3 -13 -10 -13 -15 0 -6 3 -8 7 -5 3 4 12 2 20 -4 10
-9 13 -8 13 4 0 19 -10 26 -27 20z"/>
<path d="M1060 440 c0 -5 5 -10 11 -10 5 0 7 5 4 10 -3 6 -8 10 -11 10 -2 0
-4 -4 -4 -10z"/>
<path d="M1936 433 c4 -12 16 -30 27 -40 12 -10 19 -14 15 -9 -8 9 13 36 24
30 4 -2 10 0 13 6 4 6 3 9 -2 8 -4 -1 -19 4 -33 12 -23 12 -24 12 -11 -4 11
-13 11 -20 3 -28 -7 -7 -12 -8 -12 -2 0 6 -7 19 -15 30 -14 18 -14 18 -9 -3z"/>
<path d="M2459 446 c-1 -3 -2 -11 -3 -18 0 -6 -9 -12 -19 -14 -27 -4 -34 -14
-17 -24 19 -12 35 -7 35 10 0 7 6 15 14 18 9 3 11 0 6 -8 -5 -8 -4 -11 3 -7
13 9 9 40 -6 45 -7 2 -13 1 -13 -2z m-14 -46 c3 -5 1 -10 -4 -10 -6 0 -11 5
-11 10 0 6 2 10 4 10 3 0 8 -4 11 -10z"/>
<path d="M1825 430 c-4 -6 -11 -7 -17 -4 -14 9 0 -36 18 -57 8 -9 11 -19 7
-22 -3 -4 -1 -7 5 -7 6 0 10 9 9 20 -1 11 -7 20 -13 20 -7 0 -11 7 -10 15 3
22 16 31 16 11 0 -9 5 -14 10 -11 8 5 8 11 1 19 -6 7 -8 16 -4 19 3 4 1 7 -5
7 -6 0 -14 -5 -17 -10z"/>
<path d="M460 421 c0 -5 9 -7 20 -4 11 3 20 7 20 9 0 2 -9 4 -20 4 -11 0 -20
-4 -20 -9z"/>
<path d="M903 412 c-8 -14 -8 -19 1 -19 7 0 13 9 13 19 1 10 1 18 0 18 -1 0
-7 -8 -14 -18z"/>
<path d="M1040 415 c0 -7 30 -13 34 -7 3 4 -4 9 -15 9 -10 1 -19 0 -19 -2z"/>
<path d="M2026 412 c-3 -5 1 -9 9 -9 8 0 12 4 9 9 -3 4 -7 8 -9 8 -2 0 -6 -4
-9 -8z"/>
<path d="M536 397 c3 -10 9 -15 12 -12 3 3 0 11 -7 18 -10 9 -11 8 -5 -6z"/>
<path d="M1166 394 c-4 -12 -2 -15 9 -10 8 3 15 1 15 -4 0 -6 4 -10 8 -10 5 0
9 7 9 15 0 8 -3 13 -5 10 -3 -3 -11 0 -17 5 -9 8 -14 6 -19 -6z"/>
<path d="M495 390 c-3 -6 5 -14 18 -19 14 -6 28 -15 32 -21 3 -5 10 -8 15 -5
5 3 11 -4 15 -15 3 -11 11 -20 16 -20 6 0 8 4 4 9 -3 5 -1 12 5 16 5 3 11 -1
11 -9 1 -9 2 -20 3 -26 1 -11 46 -45 46 -34 0 3 8 0 18 -7 15 -11 15 -11 4 1
-7 8 -17 15 -22 15 -6 0 -9 5 -7 10 1 6 5 9 10 7 21 -7 2 16 -35 42 -23 17
-38 25 -35 19 4 -7 3 -14 -2 -17 -5 -3 -12 1 -15 10 -3 8 -10 13 -15 9 -6 -3
-18 6 -27 20 -17 27 -29 31 -39 15z m150 -89 c-6 -5 -25 10 -25 20 0 5 6 4 14
-3 8 -7 12 -15 11 -17z"/>
<path d="M2093 355 c-26 -26 -52 -44 -60 -41 -8 3 -11 1 -8 -4 9 -15 45 -12
51 5 4 8 10 12 15 9 5 -3 8 0 7 7 -2 7 4 14 12 14 26 2 50 17 50 30 0 30 -22
24 -67 -20z m37 5 c0 -5 -5 -10 -11 -10 -5 0 -7 5 -4 10 3 6 8 10 11 10 2 0 4
-4 4 -10z"/>
<path d="M875 380 c3 -5 -3 -14 -14 -19 -23 -13 -37 -43 -15 -34 9 3 14 0 12
-7 -2 -7 3 -15 10 -17 17 -7 15 12 -3 27 -14 12 -13 15 10 30 22 14 24 18 10
24 -9 3 -13 2 -10 -4z"/>
<path d="M1673 382 c-9 -6 -7 -22 12 -67 13 -33 28 -61 34 -63 5 -2 9 -9 7
-15 -1 -7 -1 -9 1 -4 3 4 9 5 14 1 5 -3 5 -13 -1 -25 -15 -28 -5 -23 15 7 9
15 12 24 7 20 -6 -3 -14 -1 -19 6 -12 20 -12 38 -1 38 6 0 4 8 -5 18 -10 10
-14 22 -10 27 5 4 2 5 -5 1 -7 -4 -9 -13 -5 -19 10 -16 12 -50 2 -40 -4 4 -14
25 -23 46 -11 27 -12 37 -3 37 7 0 6 4 -3 10 -24 15 -5 21 27 8 18 -8 28 -19
26 -28 -4 -12 -3 -13 5 -1 6 8 16 10 23 6 8 -4 1 4 -16 19 -30 26 -60 32 -82
18z"/>
<path d="M1863 368 c1 -16 5 -28 9 -28 10 0 9 9 -2 35 -8 17 -8 16 -7 -7z"/>
<path d="M2015 375 c11 -9 19 -20 18 -25 -2 -5 4 -7 13 -3 17 6 11 12 -31 34
l-20 10 20 -16z"/>
<path d="M2380 373 c-13 -15 -13 -16 2 -11 8 4 20 2 26 -4 7 -7 10 -5 8 8 -4
24 -18 27 -36 7z"/>
<path d="M920 376 c0 -2 8 -10 18 -17 15 -13 16 -12 3 4 -13 16 -21 21 -21 13z"/>
<path d="M1290 368 c0 -7 12 -18 26 -25 21 -10 25 -10 20 2 -2 7 -1 16 5 19 5
2 4 3 -3 2 -7 -2 -21 1 -30 6 -13 6 -18 5 -18 -4z"/>
<path d="M1419 361 c-1 -3 -1 -9 0 -13 0 -5 -5 -8 -12 -8 -8 0 -21 -8 -29 -17
-17 -20 -20 -53 -6 -53 5 0 7 9 3 19 -5 15 2 24 27 38 18 10 42 20 53 24 17 5
16 6 -7 11 -16 3 -29 2 -29 -1z"/>
<path d="M1540 361 c0 -6 9 -8 19 -6 14 2 21 -4 25 -21 4 -14 4 -30 0 -37 -5
-9 -4 -9 5 -1 7 6 9 23 5 42 -5 25 -12 32 -30 32 -13 0 -24 -4 -24 -9z"/>
<path d="M1044 344 c-18 -14 -18 -15 4 -4 12 6 22 13 22 15 0 8 -5 6 -26 -11z"/>
<path d="M1188 353 c7 -3 16 -2 19 1 4 3 -2 6 -13 5 -11 0 -14 -3 -6 -6z"/>
<path d="M885 340 c-3 -5 -1 -10 4 -10 6 0 11 5 11 10 0 6 -2 10 -4 10 -3 0
-8 -4 -11 -10z"/>
<path d="M980 342 c0 -4 10 -9 22 -9 18 -2 20 0 8 7 -18 12 -30 13 -30 2z"/>
<path d="M2370 340 c13 -8 12 -10 -2 -10 -10 0 -18 -5 -18 -11 0 -5 -5 -7 -10
-4 -6 4 -8 11 -5 16 3 5 -1 6 -9 3 -19 -7 -21 -21 -3 -27 6 -2 2 -2 -10 -1
-12 2 -25 -1 -28 -6 -4 -6 -1 -9 7 -8 7 2 12 -3 10 -10 -2 -12 81 39 92 56 2
4 -5 9 -17 9 -17 2 -19 0 -7 -7z"/>
<path d="M1310 322 c9 -19 30 -23 30 -5 0 4 -3 3 -7 0 -3 -4 -12 1 -20 11 -13
15 -13 15 -3 -6z"/>
<path d="M1791 313 c12 -15 12 -16 -5 -10 -16 7 -17 5 -5 -9 9 -11 15 -12 17
-4 2 6 13 -2 23 -19 18 -31 39 -41 39 -20 0 5 -5 7 -11 3 -7 -4 -10 -1 -7 7 3
8 14 13 24 11 15 -2 16 -1 5 7 -8 5 -22 8 -31 6 -10 -2 -23 7 -30 21 -8 13
-18 24 -23 24 -5 0 -3 -8 4 -17z"/>
<path d="M1875 321 c-3 -5 -2 -12 3 -15 5 -3 9 1 9 9 0 17 -3 19 -12 6z"/>
<path d="M1142 306 c7 -8 15 -12 17 -11 5 6 -10 25 -20 25 -5 0 -4 -6 3 -14z"/>
<path d="M1550 303 c0 -10 4 -14 8 -8 4 6 11 13 16 18 5 4 2 7 -7 7 -10 0 -17
-8 -17 -17z"/>
<path d="M2246 284 c-11 -8 -16 -15 -10 -15 51 -7 54 -6 42 10 -7 9 -12 17
-13 18 0 1 -9 -5 -19 -13z"/>
<path d="M698 279 c6 -9 8 -19 4 -23 -4 -4 2 -14 12 -22 14 -10 23 -11 33 -3
10 9 13 8 13 -2 0 -8 10 -20 23 -28 22 -14 22 -14 4 7 -11 12 -16 26 -11 33 4
7 3 10 -3 6 -6 -4 -14 0 -17 9 -3 8 -11 12 -17 9 -5 -4 -20 1 -32 12 -14 12
-18 13 -9 2z m52 -31 c0 -14 -18 -17 -28 -5 -8 10 -6 13 9 13 10 0 19 -4 19
-8z"/>
<path d="M1291 273 c7 -12 15 -20 18 -17 3 2 -3 12 -13 22 -17 16 -18 16 -5
-5z"/>
<path d="M1320 285 c0 -2 6 -8 13 -14 10 -8 14 -7 14 2 0 8 -6 14 -14 14 -7 0
-13 -1 -13 -2z"/>
<path d="M1391 274 c0 -11 3 -14 6 -6 3 7 2 16 -1 19 -3 4 -6 -2 -5 -13z"/>
<path d="M1893 274 c0 -11 7 -26 14 -33 17 -15 16 -3 -2 29 -12 22 -14 23 -12
4z"/>
<path d="M1150 270 c0 -5 5 -10 11 -10 5 0 7 5 4 10 -3 6 -8 10 -11 10 -2 0
-4 -4 -4 -10z"/>
<path d="M1601 264 c0 -11 3 -14 6 -6 3 7 2 16 -1 19 -3 4 -6 -2 -5 -13z"/>
<path d="M1550 265 c0 -5 5 -17 10 -25 5 -8 10 -10 10 -5 0 6 -5 17 -10 25 -5
8 -10 11 -10 5z"/>
<path d="M2203 258 c0 -7 11 -13 24 -13 21 0 22 1 6 13 -9 6 -20 12 -23 12 -4
0 -7 -6 -7 -12z"/>
<path d="M1323 243 c3 -13 2 -23 -1 -23 -4 0 -8 -15 -9 -33 l-1 -32 12 34 c6
18 21 40 31 48 14 11 15 14 4 10 -9 -3 -22 0 -29 6 -10 10 -12 7 -7 -10z"/>
<path d="M1118 243 c7 -3 16 -2 19 1 4 3 -2 6 -13 5 -11 0 -14 -3 -6 -6z"/>
<path d="M1281 216 c-8 -13 -11 -30 -8 -38 3 -8 6 -5 6 8 1 11 6 25 13 32 6 6
9 14 7 17 -3 3 -11 -6 -18 -19z"/>
<path d="M1595 230 c-3 -5 -2 -10 4 -10 6 0 8 -8 5 -17 -5 -14 -4 -15 4 -4 6
8 8 20 5 28 -6 16 -10 16 -18 3z"/>
<path d="M1865 230 c-8 -13 5 -13 25 0 13 8 13 10 -2 10 -9 0 -20 -4 -23 -10z"/>
<path d="M1096 215 c-3 -8 -1 -15 3 -15 5 0 11 7 15 15 3 8 1 15 -3 15 -5 0
-11 -7 -15 -15z"/>
<path d="M1137 209 c4 -13 8 -18 11 -10 2 7 -1 18 -6 23 -8 8 -9 4 -5 -13z"/>
<path d="M1381 214 c0 -11 3 -14 6 -6 3 7 2 16 -1 19 -3 4 -6 -2 -5 -13z"/>
<path d="M1410 222 c0 -7 5 -12 11 -12 5 0 8 -4 4 -9 -3 -5 -1 -12 4 -15 13
-8 7 22 -7 36 -9 9 -12 9 -12 0z"/>
<path d="M821 211 c-10 -6 -9 -10 4 -15 9 -3 13 -11 10 -16 -4 -6 -3 -9 2 -8
4 1 19 -4 32 -11 17 -9 26 -10 34 -2 13 13 -1 31 -26 35 -8 1 -21 7 -29 13 -8
7 -19 8 -27 4z m55 -33 c10 6 24 1 24 -9 0 -8 -4 -9 -13 0 -8 6 -16 9 -19 6
-3 -3 -13 5 -24 17 l-19 23 24 -20 c13 -11 25 -19 27 -17z"/>
<path d="M2129 207 c6 -8 7 -18 3 -22 -4 -5 -1 -5 6 -1 10 6 10 11 1 22 -6 8
-14 14 -16 14 -3 0 0 -6 6 -13z"/>
<path d="M2099 203 c-1 -5 -1 -11 0 -16 1 -4 -10 -12 -23 -17 -13 -5 -27 -14
-32 -21 -4 -7 12 -1 35 12 23 13 38 25 32 27 -6 2 -9 8 -5 13 3 5 3 9 0 9 -3
0 -7 -3 -7 -7z"/>
<path d="M1755 190 c-3 -5 1 -10 9 -10 9 0 16 5 16 10 0 6 -4 10 -9 10 -6 0
-13 -4 -16 -10z"/>
<path d="M2046 181 c-4 -5 3 -7 14 -4 23 6 26 13 6 13 -8 0 -17 -4 -20 -9z"/>
<path d="M930 165 c7 -9 15 -13 17 -11 7 7 -7 26 -19 26 -6 0 -6 -6 2 -15z"/>
<path d="M1413 167 c0 -8 6 -14 14 -14 9 0 10 4 2 14 -6 7 -12 13 -14 13 -1 0
-2 -6 -2 -13z"/>
<path d="M2010 170 c0 -5 -8 -7 -17 -4 -17 5 -17 5 0 -6 10 -6 14 -16 10 -23
-4 -8 -1 -7 9 1 9 8 14 20 11 28 -6 16 -13 19 -13 4z"/>
<path d="M966 155 c4 -8 1 -15 -6 -15 -23 0 1 -19 45 -34 25 -8 43 -11 40 -6
-3 5 -19 11 -35 15 -34 7 -46 20 -29 31 8 4 9 3 5 -4 -4 -7 -2 -12 3 -12 18 0
12 19 -9 30 -16 9 -18 8 -14 -5z"/>
<path d="M1583 163 c9 -2 23 -2 30 0 6 3 -1 5 -18 5 -16 0 -22 -2 -12 -5z"/>
<path d="M1963 149 c1 -6 -4 -14 -12 -17 -8 -3 -11 0 -7 7 4 6 2 11 -4 11 -7
0 -10 -7 -6 -15 6 -17 -9 -21 -19 -5 -4 6 -11 7 -17 4 -6 -4 -5 -10 3 -15 10
-6 8 -9 -8 -9 -13 0 -23 -4 -23 -10 0 -14 16 -12 51 5 16 9 35 13 41 9 7 -5 8
-3 3 6 -6 10 -4 12 9 7 14 -6 15 -3 6 13 -12 22 -21 27 -17 9z"/>
<path d="M910 146 c0 -2 7 -7 16 -10 8 -3 12 -2 9 4 -6 10 -25 14 -25 6z"/>
<path d="M1060 116 c0 -8 4 -17 9 -20 5 -4 7 3 4 14 -6 23 -13 26 -13 6z"/>
<path d="M1086 117 c3 -10 9 -15 12 -12 3 3 0 11 -7 18 -10 9 -11 8 -5 -6z"/>
<path d="M1792 101 c-10 -6 -9 -10 7 -14 13 -3 19 -1 15 5 -4 6 2 8 17 3 19
-5 21 -4 9 4 -18 13 -31 13 -48 2z"/>
<path d="M1176 85 c10 -8 23 -15 28 -15 6 0 1 7 -10 15 -10 8 -23 15 -28 15
-6 0 -1 -7 10 -15z"/>
<path d="M1210 95 c0 -2 15 -9 33 -14 29 -8 30 -9 7 -11 -23 -1 -23 -2 -5 -9
11 -5 22 -5 25 -2 3 4 21 12 40 18 l35 10 -40 -1 c-22 -1 -52 2 -67 7 -16 4
-28 5 -28 2z"/>
<path d="M1750 89 c0 -5 5 -7 10 -4 6 3 10 8 10 11 0 2 -4 4 -10 4 -5 0 -10
-5 -10 -11z"/>
<path d="M1140 80 c8 -5 20 -10 25 -10 6 0 3 5 -5 10 -8 5 -19 10 -25 10 -5 0
-3 -5 5 -10z"/>
<path d="M1595 80 c-3 -5 4 -6 15 -3 12 3 20 0 20 -7 0 -7 6 -10 14 -7 8 3 16
1 18 -5 5 -15 48 0 48 18 0 8 -4 14 -10 14 -5 0 -9 -3 -7 -7 1 -5 -2 -8 -8 -8
-5 0 -9 3 -8 6 3 9 -77 8 -82 -1z"/>
<path d="M1358 71 c12 -7 62 -4 62 5 0 2 -17 4 -37 4 -24 0 -33 -3 -25 -9z"/>
<path d="M1451 71 c-9 -6 -4 -8 18 -6 17 1 34 5 38 9 10 9 -40 7 -56 -3z"/>
<path d="M1288 53 c7 -3 16 -2 19 1 4 3 -2 6 -13 5 -11 0 -14 -3 -6 -6z"/>
<path d="M1590 50 l-25 -8 28 -1 c15 -1 27 4 27 9 0 6 -1 10 -2 9 -2 -1 -14
-5 -28 -9z"/>
<path d="M1368 43 c7 -3 16 -2 19 1 4 3 -2 6 -13 5 -11 0 -14 -3 -6 -6z"/>
<path d="M1448 43 c12 -2 30 -2 40 0 9 3 -1 5 -23 4 -22 0 -30 -2 -17 -4z"/>
</g>
</svg>
